<?xml version="1.0" standalone="no"?>
<!DOCTYPE svg PUBLIC "-//W3C//DTD SVG 20010904//EN"
 "http://www.w3.org/TR/2001/REC-SVG-20010904/DTD/svg10.dtd">
<svg version="1.0" xmlns="http://www.w3.org/2000/svg"
 width="947.000000pt" height="1280.000000pt" viewBox="0 0 947.000000 1280.000000"
 preserveAspectRatio="xMidYMid meet">
<g transform="translate(0.000000,1280.000000) scale(0.100000,-0.100000)"
fill="#000000" stroke="none">
<path d="M4900 12797 c-3 -3 -116 -13 -250 -22 -1040 -67 -2067 -236 -2673
-441 -577 -195 -1015 -558 -1260 -1044 -156 -310 -197 -533 -197 -1067 0 -385
26 -703 85 -1055 126 -750 329 -1225 887 -2075 207 -315 223 -347 223 -432 -1
-83 -18 -116 -122 -238 -138 -162 -293 -392 -418 -621 -218 -398 -366 -861
-431 -1342 -22 -167 -30 -616 -15 -803 42 -495 161 -1005 346 -1472 59 -150
224 -491 300 -622 578 -987 1367 -1431 2715 -1527 639 -46 1068 -45 1655 5
1410 118 2203 628 2775 1784 60 121 133 283 164 360 191 488 310 999 347 1495
14 189 6 598 -15 758 -50 379 -144 726 -281 1038 -31 71 -65 158 -76 194 -24
83 -77 193 -190 396 -112 203 -190 367 -220 464 -33 107 -34 276 -1 374 45
135 116 249 252 406 45 52 102 125 126 161 189 289 540 1088 660 1506 129 451
208 1120 175 1498 -52 597 -76 718 -182 913 -127 238 -365 478 -684 692 -242
162 -519 302 -701 354 -483 138 -1473 281 -2379 342 -261 18 -607 29 -615 21z
m520 -1498 c575 -53 1479 -287 2110 -546 285 -118 434 -248 535 -466 61 -132
70 -182 69 -382 -2 -396 -92 -718 -359 -1285 -48 -102 -107 -231 -131 -288
-126 -300 -351 -509 -654 -607 -75 -25 -105 -28 -255 -32 -225 -7 -392 9 -513
48 -312 99 -680 172 -1013 200 -176 15 -662 6 -834 -15 -369 -46 -695 -127
-1055 -263 l-145 -55 -115 4 c-224 9 -346 80 -554 324 -69 80 -109 149 -190
323 -176 379 -465 1207 -496 1420 -26 173 2 372 75 537 40 90 145 241 226 324
103 106 247 179 592 301 572 202 1500 405 2097 458 140 12 478 12 610 0z"/>
</g>
</svg>
